<svg width="182" height="84" fill="none" xmlns="http://www.w3.org/2000/svg"><path fill-rule="evenodd" clip-rule="evenodd" d="M80.49 14.716c2.512.958 4.177 2.551 4.177 2.551.018-.773.22-1.568.509-2.241 0 0-.804-1.501-3.177-3.127-2.548-1.747-5.457-2.234-5.457-2.234a15.296 15.296 0 00-1.233 4.118s2.128-.232 5.181.933M82.295 9.644c2.396 2.317 3.262 4.646 3.262 4.646a6.06 6.06 0 011.728-1.798s-.89-2.793-2.33-4.857c-1.441-2.063-3.776-3.776-3.776-3.776a15.621 15.621 0 00-3.011 3.065s2.377 1.027 4.127 2.72" fill="#FFFFFE"/><mask id="a" maskUnits="userSpaceOnUse" x="84" y="0" width="7" height="13"><path fill-rule="evenodd" clip-rule="evenodd" d="M84.287.795h6.06v11.347h-6.06V.795z" fill="#fff"/></mask><g mask="url(#a)"><path fill-rule="evenodd" clip-rule="evenodd" d="M86.51 6.75a23.317 23.317 0 011.358 5.392 6.786 6.786 0 012.48-.734s.042-2.67-.546-5.415C89.114 2.785 88.33.795 88.33.795a15.54 15.54 0 00-4.042 1.199s1.475 2.844 2.223 4.756" fill="#FFFFFE"/></g><path fill-rule="evenodd" clip-rule="evenodd" d="M100.828 14.716c-2.513.958-4.176 2.551-4.176 2.551a6.204 6.204 0 00-.51-2.241s.805-1.501 3.177-3.127c2.549-1.747 5.457-2.234 5.457-2.234a15.277 15.277 0 011.233 4.118s-2.127-.232-5.181.933M99.022 9.644c-2.396 2.317-3.262 4.646-3.262 4.646a6.049 6.049 0 00-1.729-1.798s.89-2.793 2.332-4.857c1.441-2.063 3.775-3.776 3.775-3.776 1.14.878 2.155 1.91 3.012 3.065 0 0-2.378 1.027-4.128 2.72" fill="#FFFFFE"/><mask id="b" maskUnits="userSpaceOnUse" x="90" y="0" width="8" height="13"><path fill-rule="evenodd" clip-rule="evenodd" d="M90.969.795h6.061v11.347H90.97V.795z" fill="#fff"/></mask><g mask="url(#b)"><path fill-rule="evenodd" clip-rule="evenodd" d="M94.807 6.75c-1.083 2.767-1.358 5.392-1.358 5.392a6.784 6.784 0 00-2.48-.734s-.042-2.67.546-5.415c.688-3.208 1.472-5.198 1.472-5.198 1.421.218 2.777.627 4.043 1.199 0 0-1.475 2.844-2.223 4.756" fill="#FFFFFE"/></g><path fill-rule="evenodd" clip-rule="evenodd" d="M82.575 24.137c2.993-1.425 6.012-1.13 6.012-1.13a6.069 6.069 0 01-2.681-1.97s-2.681-.32-4.735.094c-3.11.627-4.487 1.706-4.487 1.706a15.484 15.484 0 002.395 3.56s1.284-1.206 3.496-2.26M80.248 19.626c3.051-.147 5.157.65 5.157.65a5.876 5.876 0 01-.71-2.255s-2.424-1.38-4.658-1.68c-3.093-.415-4.896.178-4.896.178.04 1.465.283 2.88.703 4.216 0 0 1.982-.993 4.404-1.11" fill="#FFFFFE"/><path fill-rule="evenodd" clip-rule="evenodd" d="M90.659 26.474c4.368 0 6.28 3.78 6.28 3.78a15.635 15.635 0 003.742-2.343s-3.69-4.642-10.022-4.642c-6.331 0-10.022 4.642-10.022 4.642a15.68 15.68 0 003.743 2.343s1.91-3.78 6.279-3.78" fill="#FFFFFE"/><path fill-rule="evenodd" clip-rule="evenodd" d="M98.743 24.137c-2.993-1.425-6.012-1.13-6.012-1.13a6.067 6.067 0 002.682-1.97s2.68-.32 4.735.094c3.109.627 4.488 1.706 4.488 1.706a15.504 15.504 0 01-2.397 3.56s-1.283-1.206-3.496-2.26M101.069 19.626c-3.052-.147-5.157.65-5.157.65a5.891 5.891 0 00.71-2.255s2.423-1.38 4.658-1.68c3.093-.415 4.896.178 4.896.178a15.375 15.375 0 01-.704 4.216s-1.982-.993-4.403-1.11M29.377 36.098v5.53h2.332c2.472 0 3.544-.968 3.544-2.766 0-1.796-1.055-2.764-3.544-2.764h-2.332zm0 10.453h1.607v1.261h-4.648v-1.26h1.607V36.046h-1.607v-1.262h5.373c2.973 0 4.977 1.296 4.977 4.077 0 2.782-2.021 4.078-4.977 4.078h-2.332v3.611zM45.345 42.646c.018-1.762-1.313-3.11-3.093-3.11s-3.11 1.348-3.093 3.11h6.186zm1.107 2.506c-.415 1.624-1.936 2.868-4.2 2.868-2.8 0-4.51-1.762-4.51-4.873 0-2.953 1.78-4.872 4.51-4.872 2.955 0 4.839 2.264 4.459 5.615h-7.535c.12 1.435 1.123 2.869 3.076 2.869 1.296 0 2.246-.536 2.73-1.607h1.47zM51.481 46.603h1.487v1.21h-4.355v-1.21H50.1v-6.91h-1.486v-1.21H51.378v1.33c.553-1.002 1.918-1.936 3.75-1.314v1.349c-2.195-.622-3.647.587-3.647 2.729v4.026zM66.033 46.603h1.486v1.21h-4.354v-1.21h1.485v-3.94c0-2.193-1.313-3.109-2.747-3.109-1.435 0-2.66 1.002-2.66 3.196v3.853h1.485v1.21h-4.355v-1.21h1.486v-6.91h-1.486v-1.21h2.766v1.33c.5-.777 1.571-1.521 3.023-1.521 2.056 0 3.871 1.175 3.871 4.372v3.939zM73.31 46.759c1.815 0 3.162-1.28 3.162-3.612s-1.347-3.61-3.162-3.61c-1.814 0-3.162 1.278-3.162 3.61s1.348 3.612 3.162 3.612m0-8.484c2.869 0 4.545 2.056 4.545 4.872S76.18 48.02 73.31 48.02c-2.868 0-4.544-2.057-4.544-4.873 0-2.816 1.676-4.872 4.544-4.872M80.898 43.148c0 2.367 1.4 3.611 3.128 3.611 1.728 0 3.128-1.244 3.128-3.611 0-2.368-1.4-3.612-3.128-3.612-1.728 0-3.128 1.244-3.128 3.612zm7.586 3.455h1.487v1.21h-2.817v-1.33c-.553.83-1.763 1.537-3.25 1.537-2.66 0-4.388-2.09-4.388-4.872 0-2.783 1.728-4.873 4.389-4.873 1.4 0 2.627.622 3.197 1.538v-3.835h-1.486v-1.21h2.868v11.835zM99.254 36.098v4.838h3.059c1.953 0 2.799-.968 2.799-2.42 0-1.45-.83-2.418-2.799-2.418h-3.06zm-3.059-1.33h6.118c2.453 0 4.251 1.313 4.251 3.749 0 2.074-1.314 3.335-3.214 3.663l2.125 4.354h1.694v1.278h-2.714l-2.678-5.545h-2.523v4.285h1.434v1.26h-4.493v-1.26h1.607V36.029h-1.607v-1.261z" fill="#FFFFFE"/><mask id="c" maskUnits="userSpaceOnUse" x="0" y="15" width="182" height="69"><path fill-rule="evenodd" clip-rule="evenodd" d="M.857 83.832H181.08V15.045H.857v68.787z" fill="#fff"/></mask><g mask="url(#c)" fill-rule="evenodd" clip-rule="evenodd" fill="#FFFFFE"><path d="M110.177 36.513h1.573v-1.745h-1.573v1.745zm1.555 10.09h1.486v1.21h-4.355v-1.21h1.487v-6.91h-1.487v-1.21H111.732v8.12zM123.571 44.41c-.536 2.124-1.971 3.61-4.51 3.61-2.87 0-4.545-2.056-4.545-4.872s1.675-4.873 4.545-4.873c1.33 0 2.539.639 3.092 1.538v-1.33h1.332v3.403h-1.504c-.415-1.261-1.261-2.35-2.92-2.35-1.815 0-3.163 1.28-3.163 3.612s1.348 3.61 3.163 3.61c1.572 0 2.643-.95 3.075-2.349h1.435zM126.613 43.148c0 2.367 1.399 3.611 3.128 3.611 1.727 0 3.128-1.244 3.128-3.611 0-2.368-1.401-3.612-3.128-3.612-1.729 0-3.128 1.244-3.128 3.611zm6.204-4.666h2.817v1.21h-1.487v6.91h1.487v1.21h-2.817v-1.33c-.57.916-1.797 1.538-3.197 1.538-2.661 0-4.39-2.09-4.39-4.873 0-2.782 1.729-4.872 4.39-4.872 1.4 0 2.627.622 3.197 1.537v-1.33zM140.51 46.603h1.485v1.21h-4.354v-1.21h1.486v-6.91h-1.486v-1.21H140.405v1.33c.553-1.002 1.919-1.936 3.751-1.314v1.349c-2.194-.622-3.646.587-3.646 2.729v4.026zM146.248 43.148c0 2.367 1.399 3.611 3.127 3.611 1.728 0 3.129-1.244 3.129-3.611 0-2.368-1.401-3.612-3.129-3.612s-3.127 1.244-3.127 3.612zm7.587 3.455h1.484v1.21h-2.815v-1.33c-.553.83-1.763 1.537-3.25 1.537-2.66 0-4.389-2.09-4.389-4.872 0-2.783 1.729-4.873 4.389-4.873 1.4 0 2.628.622 3.198 1.538v-3.835h-1.487v-1.21h2.87v11.835zM10.457 67.838l-2.716.714c-1.04.225-1.967.336-2.78.336-2.737 0-4.104-.987-4.104-2.96 0-.944.443-2.053 1.326-3.318.742-1.06 1.572-1.945 2.485-2.657 1.114-.861 2.101-1.293 2.969-1.293 1.252 0 1.878.59 1.878 1.774 0 .196-.07.835-.217 1.913-.326-.05-.52-.092-.584-.122-.114-.06-.238-.211-.368-.449.14-.575.215-1.018.215-1.326 0-.577-.32-.864-.956-.864-.877 0-1.818.425-2.826 1.28-.815.7-1.504 1.504-2.069 2.423-.638 1.027-.955 1.942-.955 2.748 0 .79.383 1.392 1.139 1.801.61.331 1.347.498 2.206.498.486 0 1.065-.037 1.731-.112.238-.018.814-.094 1.73-.23a5.02 5.02 0 00.88-.258c.38-.144.666-.233.863-.265.061.093.114.214.153.367M17.277 65.185l-2.42-.784c-.598 0-1.12.405-1.577 1.216-.165.28-.439.936-.821 1.97-.388 1.034-1.009 1.552-1.861 1.552.049-.426.315-1.005.8-1.747.523-.8.838-1.392.943-1.775.084-.316.139-.844.169-1.572.008-.31.082-.63.217-.958.185-.46.395-.703.633-.721l.295.013.153 1.05c.067.269.316.4.724.4h.527c.09-.01.163-.015.213-.015 1.184-.02 1.854.439 2.005 1.371M23.587 61.64c-.646.634-1.053.952-1.219.94a.912.912 0 01-.4-.123c-.03-.022-.153-.091-.37-.215l.109-.218c.112-.236.495-.693 1.14-1.373l.68-.71c.321-.298.6-.449.835-.449.31 0 .462.151.462.449 0 .317-.41.884-1.237 1.698m-.354 3.1a1.477 1.477 0 00-1.124-.494c-.32 0-.606.067-.864.2-.01.012-.272.155-.785.436.308.49.73.736 1.262.736.61 0 1.113-.292 1.511-.879m1.591 2.964c-.308.337-1.04.596-2.19.773a16.56 16.56 0 01-2.484.183c-1.741 0-2.607-.496-2.607-1.496 0-1.221.903-2.276 2.716-3.15.627-.307 1.279-.56 1.958-.754.657.154 1.096.268 1.31.339.466.152.695.54.695 1.154 0 .55-.348.98-1.048 1.3a4.287 4.287 0 01-1.792.404c-.946 0-1.625-.145-2.037-.438-.513.251-.772.568-.772.958 0 .69.626 1.037 1.887 1.037.459 0 1-.034 1.619-.093 1.448-.145 2.367-.217 2.745-.217M32.774 69.151v-.046h.031v-.045h-.03v-.095h.062v.033h-.032v.032h.032v.121h-.063zm-.51-5.527c0-.366-.32-.548-.956-.548-.938 0-1.713.207-2.33.629-.578.39-1.175.919-1.788 1.573-.784.833-1.176 1.491-1.176 1.977 0 .288.126.51.37.664.217.133.48.197.79.197.892 0 1.66-.313 2.298-.938.156-.156.593-.746 1.314-1.776.44-.635.865-.957 1.28-.957.131-.285.199-.554.199-.82zm.557 5.22c-.228.494-.496.738-.803.738-.35 0-.739-.255-1.162-.77a5.35 5.35 0 01-.796-1.266c-.864.413-1.454.678-1.762.803-.76.3-1.374.445-1.837.445-.812 0-1.217-.41-1.217-1.23 0-1.326.718-2.508 2.161-3.552.474-.336 1.109-.703 1.914-1.093.955-.462 1.635-.695 2.037-.695.276 0 .537.147.787.449.242.297.368.591.368.877 0 .568-.223 1.31-.671 2.23-.446.922-.67 1.454-.67 1.599 0 .491.077.834.227 1.017.13.156.6.305 1.424.448z"/><path d="M39.487 59.446c0 .26-.09.548-.263.863-.074.135-.389.573-.94 1.313.257.175.517.347.783.51.296.236.42.506.388.801l-.015.17c-.012 0-.246-.074-.712-.216-.294-.092-.528-.137-.693-.137-.563 0-1.38.596-2.446 1.78-1.065 1.19-1.598 2.079-1.598 2.664 0 .504.454.87 1.36 1.093.575.145 1.22.214 1.946.214.274 0 .558-.017.846-.06-.01.055.038.146.14.28a5.457 5.457 0 01-1.932.371c-2.31 0-3.469-.57-3.469-1.7 0-.667.58-1.646 1.74-2.947l1.332-1.481-.541-.031c-.227-.007-.533.053-.914.185-.75.265-1.19.405-1.325.405a.818.818 0 01-.487-.165.482.482 0 01-.222-.408c0-.402.456-.604 1.373-.604.093 0 .224.007.405.02.17.005.306.012.399.012.782 0 1.427-.133 1.937-.403.51-.265.956-.726 1.347-1.386.136-.227.451-.862.942-1.914.135 0 .27.094.407.277.143.183.212.352.212.494M45.398 64.738a1.492 1.492 0 00-1.129-.494c-.317 0-.605.068-.861.202-.013.01-.274.154-.789.435.309.49.73.736 1.264.736.607 0 1.113-.292 1.515-.879m1.59 2.964c-.312.337-1.043.596-2.19.773-.815.123-1.643.183-2.489.183-1.738 0-2.61-.497-2.61-1.497 0-1.22.907-2.275 2.718-3.15a11.966 11.966 0 011.963-.753c.657.154 1.093.268 1.307.339.465.153.699.54.699 1.154 0 .55-.354.98-1.05 1.3a4.298 4.298 0 01-1.792.403c-.946 0-1.627-.144-2.037-.436-.513.25-.77.567-.77.957 0 .69.626 1.037 1.882 1.037.461 0 1.002-.034 1.618-.094 1.45-.144 2.368-.216 2.75-.216M57.728 62.502c0 .37-.26.864-.774 1.48-.287.34-.796.959-1.528 1.854-.545.678-.818 1.302-.818 1.865 0 .3.19.442.573.433.083 0 .157-.005.233-.018h.152c.156 0 .318.027.496.078l.216.247c-.04.013-.295.078-.757.201-.309.07-.561.11-.757.11-.423 0-.721-.103-.898-.31-.142-.184-.21-.493-.21-.926v-.354c0-.112.003-.23.01-.354-.707.451-1.208.758-1.499.927-1.292.706-2.408 1.06-3.344 1.06-1.044 0-1.56-.25-1.56-.755 0-.367.473-1.135 1.423-2.295a31.467 31.467 0 011.914-2.148c.82-.835 1.35-1.25 1.587-1.25.195 0 .294.103.294.309 0 .27-.375.833-1.13 1.698-.327.36-.822.91-1.48 1.652-.668.773-1.098 1.382-1.297 1.832l.156.156c.07 0 .174.007.312.018a2.748 2.748 0 001.323-.203c.215-.093.54-.231.972-.418 1.092-.443 1.927-.894 2.5-1.354.3-.237.706-.712 1.222-1.423.22-.316.637-.887 1.234-1.713.41-.554.723-.829.938-.829.125 0 .257.051.405.152l.092.278zM64.412 65.185l-2.426-.784c-.593 0-1.122.405-1.572 1.216-.163.28-.439.936-.83 1.97-.387 1.034-1.002 1.552-1.856 1.552.05-.426.317-1.005.802-1.747.525-.8.838-1.392.94-1.775.082-.316.14-.844.168-1.572.016-.31.086-.63.219-.958.185-.46.4-.703.631-.721l.295.013.154 1.05c.075.269.312.4.729.4h.52c.094-.01.165-.015.219-.015 1.182-.02 1.847.439 2.007 1.371M73.99 61.33c-.09.483-.476.822-1.153 1.016-.405.108-1.118.283-2.145.541-.888.228-1.529.548-1.932.96 1.297.317 2.108.536 2.425.66 1.128.424 1.698.911 1.698 1.468 0 .804-.678 1.551-2.023 2.25-1.19.608-2.23.913-3.119.913-.727 0-1.4-.287-2.002-.851-.662-.614-.964-1.277-.91-1.972l.014-.234c.285.103.705.534 1.249 1.298.512.707.967 1.063 1.358 1.063.67 0 1.532-.224 2.592-.678 1.226-.525 1.835-1.07 1.835-1.636 0-.401-.36-.71-1.078-.927-.033 0-.799-.194-2.303-.587-.827-.214-1.38-.467-1.631-.754.306-.337.919-.698 1.837-1.08.585-.244 1.459-.546 2.62-.896a101.77 101.77 0 002.225-.691c.13.067.282.117.443.138M85.69 65.805c0-.813-.364-1.22-1.094-1.22-.53 0-1.159.24-1.9.711-.799.513-1.204 1.019-1.204 1.512 0 .523.676.788 2.024.788 1.45 0 2.175-.597 2.175-1.79zm3.704-6.544c-.07.423-.311 1.11-.724 2.07l-1.22 2.837c-.525 1.226-.847 2.06-.97 2.5.494 0 .777.071.845.217-.113.256-.338.56-.673.91-.393.398-.7.6-.915.6-.162 0-.407-.016-.72-.052a6.587 6.587 0 00-.715-.056c-.186 0-.458.014-.819.04-.358.024-.634.037-.817.037-1.347 0-2.02-.373-2.02-1.125 0-.902.481-1.734 1.451-2.488.914-.706 1.84-1.062 2.776-1.062.289 0 .573.06.852.186.06.03.312.17.755.415l.135-.139v-.305l.157-.141c-.052-.307.227-1.203.84-2.69.615-1.49.994-2.233 1.136-2.233.178 0 .354.076.54.217l.106.262zM94.18 64.738a1.484 1.484 0 00-1.127-.494c-.319 0-.608.068-.863.202-.012.01-.27.154-.79.435.313.49.73.736 1.265.736.612 0 1.114-.292 1.514-.879m1.592 2.964c-.31.337-1.042.596-2.195.773a16.5 16.5 0 01-2.485.183c-1.736 0-2.609-.497-2.609-1.497 0-1.22.907-2.275 2.717-3.15a12.155 12.155 0 011.964-.753c.657.154 1.094.268 1.312.339.458.153.69.54.69 1.154 0 .55-.346.98-1.05 1.3a4.277 4.277 0 01-1.788.403c-.946 0-1.627-.144-2.038-.436-.514.25-.77.567-.77.957 0 .69.627 1.037 1.882 1.037.464 0 1.006-.034 1.622-.094 1.452-.144 2.364-.216 2.748-.216M112.066 67.716c-.64.497-1.583.864-2.839 1.111a15.12 15.12 0 01-3.1.312c-2.37 0-3.555-.728-3.555-2.176 0-1.553 1.465-2.964 4.402-4.23.999-.431 1.955-.751 2.866-.957.381.225.571.487.571.772 0 .37-.124.835-.385 1.404-.296.658-.609.989-.925.989a.817.817 0 01-.454-.15c-.149-.095-.223-.216-.223-.358 0-.135.277-.573.83-1.315a9.851 9.851 0 00-.506-.076c-.915 0-1.991.386-3.227 1.156-1.366.859-2.052 1.72-2.052 2.593 0 .647.321 1.128.972 1.433.495.24 1.099.356 1.824.356 1.678 0 3.099-.14 4.275-.432.029-.007.187-.076.475-.199.186-.08.339-.123.464-.123.04 0 .08.008.107.012l.155-.136.294-.018.031.032zM120.847 65.746c0-.51-.256-.889-.771-1.146-.415-.206-.894-.31-1.455-.31-.923 0-1.881.26-2.884.771-1.05.528-1.799 1.17-2.254 1.932.699.709 1.542 1.064 2.518 1.064.938 0 1.899-.168 2.888-.51 1.306-.45 1.958-1.056 1.958-1.801m.85.09c0 .966-.701 1.723-2.101 2.267a9.17 9.17 0 01-3.349.618c-2.459 0-3.688-.608-3.688-1.823 0-.86.804-1.702 2.407-2.515 1.432-.721 2.637-1.08 3.611-1.08.863 0 1.579.202 2.149.603.645.453.971 1.096.971 1.93M129.886 65.002c0 .361-.165.88-.506 1.558-.338.68-.65 1.153-.943 1.418.013.135.024.216.03.246a.898.898 0 00.11.233c-.08.309-.289.465-.618.465a.75.75 0 01-.469-.156.469.469 0 01-.211-.402c0-.297.262-.806.791-1.526.525-.72.784-1.22.784-1.496 0-.525-.265-.789-.803-.789-.707 0-1.398.331-2.065.987-.342.36-.965 1-1.869 1.914-.718.733-1.415 1.155-2.084 1.267v-.141l-.135-.155c0-.543.504-1.417 1.511-2.62.571-.689.947-1.19 1.111-1.496.09-.27.194-.537.308-.803.094-.208.182-.352.27-.43.084-.085.228-.127.423-.127.287 0 .432.151.432.449 0 .202-.026.368-.073.494-.017.04-.127.316-.34.832.883-.471 1.386-.734 1.51-.785.699-.342 1.215-.51 1.545-.51.388 0 .699.161.939.486.233.326.352.685.352 1.087M137.018 61.33c0 .71-.48 1.49-1.448 2.346l-2.189 1.941c-.044.051-.138.262-.282.62l-.554 1.359c-.34.82-.789 1.23-1.343 1.23-.524 0-.787-.422-.787-1.28 0-.141.008-.346.033-.601.018-.297.026-.506.026-.618.013-.316-.091-.777-.306-1.386-.218-.61-.326-1.066-.326-1.376 0-.206.054-.394.153-.568a.496.496 0 01.453-.265c.338 0 .605.589.796 1.76l.388 2.316c.259-.268.8-.887 1.62-1.848.384-.444.716-.818 1.005-1.114l2.469-2.515h.292zM139.793 60.032c0 .37-.244.557-.738.557-.451 0-.679-.187-.679-.557 0-.185.063-.438.182-.77.116-.33.18-.575.187-.744.106.064.303.356.589.884.02.03.114.123.278.275.122.116.181.233.181.355m-1.446 4.243c0 .165-.287.983-.864 2.455-.074.186-.182.457-.323.816-.124.28-.286.455-.481.526-.114.041-.344.062-.693.062 0-.07-.016-.175-.038-.308a1.72 1.72 0 01-.04-.31c0-.226.091-.476.262-.754.236-.383.372-.612.399-.693.085-.26.246-.712.48-1.36.174-.455.452-.834.836-1.144.309.31.462.545.462.71M147.034 61.33c0 .71-.485 1.49-1.45 2.346l-2.195 1.941c-.038.051-.129.262-.273.62l-.556 1.359c-.342.82-.79 1.23-1.343 1.23-.525 0-.788-.422-.788-1.28 0-.141.01-.346.033-.601.019-.297.028-.506.028-.618.011-.316-.092-.777-.307-1.386-.217-.61-.324-1.066-.324-1.376 0-.206.051-.394.152-.568a.492.492 0 01.451-.265c.341 0 .603.589.797 1.76l.393 2.316c.254-.268.794-.887 1.616-1.848.382-.444.712-.818 1.003-1.114l2.471-2.515h.292zM149.813 60.032c0 .37-.246.557-.742.557-.451 0-.679-.187-.679-.557 0-.185.065-.438.181-.77.118-.33.18-.575.189-.744.104.064.301.356.589.884.017.03.11.123.277.275.122.116.185.233.185.355m-1.451 4.243c0 .165-.287.983-.864 2.455l-.324.816c-.122.28-.282.455-.48.526-.112.041-.341.062-.691.062 0-.07-.015-.175-.038-.308a1.57 1.57 0 01-.041-.31c0-.226.088-.476.261-.754.24-.383.37-.612.402-.693.084-.26.243-.712.477-1.36.175-.455.454-.834.833-1.144.313.31.465.545.465.71M157.592 69.151v-.046h.029v-.045h-.029v-.095h.061v.033h-.032v.032h.032v.121h-.061zm-.51-5.527c0-.366-.322-.548-.958-.548-.937 0-1.711.207-2.329.629-.576.39-1.176.919-1.786 1.573-.786.833-1.178 1.491-1.178 1.977 0 .288.125.51.369.664.22.133.481.197.789.197a3.16 3.16 0 002.299-.938c.157-.156.591-.746 1.316-1.776.438-.635.866-.957 1.278-.957.133-.285.2-.554.2-.82zm.558 5.22c-.23.494-.5.738-.806.738-.351 0-.731-.255-1.162-.77a5.553 5.553 0 01-.796-1.266c-.864.413-1.45.678-1.759.803-.762.3-1.376.445-1.838.445-.81 0-1.218-.41-1.218-1.23 0-1.326.717-2.508 2.161-3.552.473-.336 1.108-.703 1.913-1.093.958-.462 1.634-.695 2.035-.695.277 0 .541.147.789.449.246.297.37.591.37.877 0 .568-.226 1.31-.672 2.23-.448.922-.671 1.454-.671 1.599 0 .491.075.834.227 1.017.131.156.601.305 1.427.448z"/><path d="M163.425 58.753c0 .06-.346.721-1.031 1.99l-2.01 3.69c-.834 1.54-1.292 2.436-1.374 2.684l-.309.986c-.175.412-.4.618-.677.618-.153 0-.332-.036-.525-.11l-.171-.276c.112-.537.499-1.342 1.157-2.42l1.962-3.226c.76-1.245 1.259-2.292 1.498-3.137.037-.174.125-.477.261-.923.123-.31.32-.542.599-.692.155.015.298.116.427.3.129.178.193.35.193.516M166.448 60.032c0 .37-.248.557-.738.557-.455 0-.682-.187-.682-.557 0-.185.059-.438.178-.77.121-.33.182-.575.194-.744.102.064.293.356.587.884.018.03.114.123.273.275.13.116.188.233.188.355m-1.449 4.243c0 .165-.291.983-.866 2.455a58.2 58.2 0 01-.323.816c-.123.28-.284.455-.477.526-.111.041-.345.062-.697.062 0-.07-.012-.175-.038-.308a1.496 1.496 0 01-.036-.31c0-.226.083-.476.26-.754.234-.383.37-.612.402-.693.084-.26.241-.712.478-1.36.175-.455.453-.834.832-1.144.31.31.465.545.465.71M173.577 59.446c0 .26-.086.548-.259.863-.075.135-.391.573-.945 1.313.261.175.52.347.788.51.29.236.416.506.387.801l-.017.17c-.012 0-.246-.074-.711-.216-.294-.092-.526-.137-.693-.137-.566 0-1.383.596-2.446 1.78-1.065 1.19-1.599 2.079-1.599 2.664 0 .504.458.87 1.361 1.093.577.145 1.223.214 1.945.214.275 0 .558-.017.846-.06-.009.055.038.146.139.28a5.433 5.433 0 01-1.929.371c-2.315 0-3.47-.57-3.47-1.7 0-.667.581-1.646 1.744-2.947l1.326-1.481-.539-.031c-.228-.007-.532.053-.914.185-.749.265-1.189.405-1.325.405a.812.812 0 01-.487-.165.486.486 0 01-.224-.408c0-.402.46-.604 1.374-.604.096 0 .226.007.401.02.174.005.309.012.402.012.781 0 1.429-.133 1.94-.403.506-.265.957-.726 1.348-1.386.134-.227.447-.862.942-1.914.134 0 .271.094.408.277.14.183.207.352.207.494M179.842 61.64c-.646.634-1.054.952-1.218.94a.9.9 0 01-.4-.123c-.029-.022-.158-.091-.372-.215l.11-.218c.112-.236.492-.693 1.14-1.373l.68-.71c.317-.298.595-.449.833-.449.306 0 .464.151.464.449 0 .317-.41.884-1.237 1.698m-.353 3.1a1.493 1.493 0 00-1.129-.494c-.315 0-.607.067-.863.2-.011.012-.273.155-.789.436.311.49.73.736 1.267.736.611 0 1.11-.292 1.514-.879m1.59 2.964c-.307.337-1.041.596-2.194.773-.811.124-1.638.183-2.485.183-1.739 0-2.611-.496-2.611-1.496 0-1.221.907-2.276 2.719-3.15.631-.307 1.284-.56 1.963-.754a19.56 19.56 0 011.311.339c.461.152.693.54.693 1.154 0 .55-.35.98-1.051 1.3a4.256 4.256 0 01-1.789.404c-.944 0-1.624-.145-2.034-.438-.517.251-.774.568-.774.958 0 .69.629 1.037 1.881 1.037.464 0 1.004-.034 1.624-.093 1.45-.145 2.363-.217 2.747-.217"/></g></svg>
